<?xml version="1.0" encoding="UTF-8"?>
<svg version="1.1" xmlns="http://www.w3.org/2000/svg" width="630" height="396">
<path d="M0 0 C2.7578762 0.11780346 5.51432089 0.15602345 8.27430725 0.19111919 C11.5783762 0.23582907 14.88090781 0.32241247 18.184021 0.41217041 C19.41628418 0.44485519 20.64854736 0.47753998 21.91815186 0.51121521 C23.0603418 0.56578384 24.20253174 0.62035248 25.3793335 0.67657471 C26.38238525 0.71896774 27.38543701 0.76136078 28.41888428 0.80503845 C32.00707122 1.61425939 33.0671579 2.26249175 35.059021 5.40045166 C35.65052386 9.0586538 35.5945338 12.6808426 35.56072998 16.37945557 C35.56883446 18.05800377 35.56883446 18.05800377 35.57710266 19.77046204 C35.58962031 23.47291426 35.57307987 27.17459365 35.55511475 30.87701416 C35.55526964 33.44483481 35.55675702 36.01265569 35.55952454 38.58047485 C35.56090983 43.96231281 35.54875958 49.34386482 35.52557373 54.72564697 C35.49893751 60.95149038 35.49722578 67.17696126 35.50896209 73.40284216 C35.51973114 79.39045826 35.51346104 85.37790328 35.49940681 91.36552048 C35.49487865 93.9149168 35.49456735 96.46432411 35.49847221 99.01372147 C35.50136931 102.56945843 35.48494982 106.12457773 35.46307373 109.68023682 C35.4698262 111.27302711 35.4698262 111.27302711 35.47671509 112.897995 C35.46681046 113.8625914 35.45690582 114.82718781 35.44670105 115.8210144 C35.44305621 117.08253043 35.44305621 117.08253043 35.43933773 118.36953163 C35.25108095 119.37483705 35.25108095 119.37483705 35.059021 120.40045166 C31.82648303 122.55547697 30.80751176 122.86901301 27.059021 122.40045166 C25.43453979 121.31904602 25.43453979 121.31904602 24.059021 119.40045166 C23.62905884 116.28178406 23.62905884 116.28178406 23.55072021 112.39044189 C23.53238129 111.68120575 23.51404236 110.9719696 23.49514771 110.24124146 C23.43777952 107.89726686 23.40086823 105.55341998 23.3637085 103.20904541 C23.32695895 101.58141394 23.28878252 99.95381411 23.24923706 98.32624817 C23.14834297 94.04136654 23.06413293 89.75632607 22.98419189 85.4710083 C22.85342009 78.60787485 22.69772387 71.74526847 22.54144669 64.88267708 C22.48920561 62.48189086 22.44420664 60.08105093 22.40029907 57.68009949 C22.36985951 56.21375218 22.33927847 54.74740781 22.30853271 53.28106689 C22.28427216 51.99771957 22.2600116 50.71437225 22.23501587 49.39213562 C22.2605074 46.47516181 22.2605074 46.47516181 21.059021 44.40045166 C18.30796678 44.29233163 15.56117012 44.21310221 12.809021 44.15045166 C11.64306396 44.10017822 11.64306396 44.10017822 10.45355225 44.04888916 C5.70522075 43.943159 5.70522075 43.943159 1.63323975 46.20904541 C-0.05607445 48.56067138 -1.49195739 51.00205505 -2.87457275 53.54498291 C-4.27361252 55.9792096 -5.90693141 58.19319944 -7.597229 60.43170166 C-9.14988544 62.70652388 -10.46909157 65.08997824 -11.8213501 67.48736572 C-13.73789273 70.76212108 -15.87526208 73.88577332 -18.003479 77.02545166 C-18.87047588 78.30855551 -19.73638609 79.59239439 -20.60113525 80.87701416 C-21.00606201 81.47675049 -21.41098877 82.07648682 -21.82818604 82.69439697 C-22.8189615 84.21338313 -23.72816295 85.78487261 -24.62457275 87.36138916 C-25.05898682 88.03427979 -25.49340088 88.70717041 -25.940979 89.40045166 C-26.600979 89.40045166 -27.260979 89.40045166 -27.940979 89.40045166 C-28.08599854 90.24156494 -28.08599854 90.24156494 -28.23394775 91.09967041 C-29.10571967 93.93654144 -30.49683935 95.82437312 -32.253479 98.21295166 C-34.32587774 101.08987917 -36.31239634 103.90841369 -38.003479 107.02545166 C-39.50595762 109.64267248 -40.97264091 111.79745678 -42.815979 114.15045166 C-45.97020264 118.2150082 -48.25259087 122.58376248 -50.54644775 127.17779541 C-51.940979 129.40045166 -51.940979 129.40045166 -54.940979 130.40045166 C-55.270979 132.05045166 -55.600979 133.70045166 -55.940979 135.40045166 C-56.600979 135.40045166 -57.260979 135.40045166 -57.940979 135.40045166 C-58.312229 136.73076416 -58.312229 136.73076416 -58.690979 138.08795166 C-60.00536055 141.57106277 -61.60719255 143.53139308 -63.940979 146.40045166 C-65.06989543 148.1135626 -66.1737695 149.84340909 -67.253479 151.58795166 C-69.5759024 155.28993425 -71.96663048 158.90462874 -74.503479 162.46295166 C-76.72895403 165.60421951 -78.80365248 168.76886495 -80.753479 172.08795166 C-95.3008928 196.76036545 -95.3008928 196.76036545 -102.940979 204.40045166 C-105.96166287 204.50176557 -108.95897695 204.54012316 -111.9800415 204.53326416 C-112.89425873 204.53422089 -113.80847595 204.53517761 -114.75039673 204.53616333 C-116.69234282 204.53684562 -118.63429117 204.53498795 -120.57623291 204.53082275 C-123.53250352 204.5255118 -126.48861964 204.53074697 -129.44488525 204.53717041 C-131.33160434 204.53650892 -133.21832332 204.53522629 -135.1050415 204.53326416 C-135.98447418 204.53528839 -136.86390686 204.53731262 -137.76998901 204.53939819 C-150.23745865 204.49245188 -150.23745865 204.49245188 -154.378479 201.83795166 C-156.15368945 199.06862336 -156.69591999 196.93037856 -156.503479 193.63482666 C-155.58560095 189.98881106 -153.45715845 187.45592859 -151.1987915 184.49810791 C-148.37758554 180.62749143 -145.95783558 176.57231598 -143.503479 172.46295166 C-139.80591163 166.31448688 -135.98199003 160.44515239 -131.597229 154.75982666 C-129.72734768 152.09612779 -128.33319867 149.3376956 -126.940979 146.40045166 C-127.57326416 145.58640869 -127.57326416 145.58640869 -128.21832275 144.75592041 C-129.0401001 143.68277588 -129.0401001 143.68277588 -129.878479 142.58795166 C-130.42375244 141.88025635 -130.96902588 141.17256104 -131.53082275 140.44342041 C-135.17742652 135.16039058 -134.6595418 128.53265265 -133.940979 122.40045166 C-131.60242213 115.98883631 -128.03955246 111.79001346 -122.21539307 108.31158447 C-118.15815974 106.68625227 -114.30913855 107.52995908 -110.065979 108.02545166 C-103.7970599 108.47942829 -103.7970599 108.47942829 -98.17633057 106.14361572 C-95.04433302 102.66384845 -92.98557744 98.58986138 -90.95269775 94.40142822 C-89.45194802 91.43324657 -87.58224085 88.75649023 -85.690979 86.02545166 C-85.10832275 85.15146729 -84.5256665 84.27748291 -83.925354 83.37701416 C-83.27051025 82.39474854 -82.6156665 81.41248291 -81.940979 80.40045166 C-81.49593018 79.73070312 -81.05088135 79.06095459 -80.59234619 78.37091064 C-76.9937252 72.96063901 -73.35856535 67.57669918 -69.690979 62.21295166 C-69.13104248 61.39359131 -68.57110596 60.57423096 -67.99420166 59.7300415 C-64.10185655 54.05144533 -60.14812772 48.42164661 -56.10015869 42.85284424 C-53.87878347 39.78293424 -51.87112894 36.65914635 -49.940979 33.40045166 C-48.06552049 30.51075088 -46.19111078 27.62986237 -44.21160889 24.81040955 C-41.75204986 21.27955885 -39.61627266 17.84011338 -37.82745361 13.92218018 C-29.68047628 -2.37769201 -16.45846457 -0.81769918 0 0 Z M-118.253479 120.83795166 C-121.00065875 125.00959498 -120.24224934 129.54665183 -119.940979 134.40045166 C-118.950979 134.40045166 -117.960979 134.40045166 -116.940979 134.40045166 C-115.11320881 132.11625396 -115.11320881 132.11625396 -113.440979 129.21295166 C-112.8531665 128.25002197 -112.265354 127.28709229 -111.659729 126.29498291 C-111.0925415 125.3397876 -110.525354 124.38459229 -109.940979 123.40045166 C-109.3737915 122.45556885 -108.806604 121.51068604 -108.222229 120.53717041 C-107.7994165 119.83205322 -107.376604 119.12693604 -106.940979 118.40045166 C-111.53501606 116.69895646 -114.28959246 118.37391408 -118.253479 120.83795166 Z " fill="#F7F7F7" transform="translate(434.94097900390625,90.59954833984375)"/>
<path d="M0 0 C0.7940625 -0.01417969 1.588125 -0.02835937 2.40625 -0.04296875 C4.5 0.1875 4.5 0.1875 6.5 2.1875 C6.70712578 4.90089781 6.79048803 7.51444154 6.78710938 10.22973633 C6.79394241 11.06080399 6.80077545 11.89187164 6.80781555 12.74812317 C6.82142519 14.55638221 6.83046454 16.36467999 6.83552551 18.17298317 C6.84379549 21.03527437 6.86428399 23.89724357 6.88806152 26.75944519 C6.93636685 32.83958248 6.96923666 38.91975198 7 45 C7.03565906 52.03454756 7.0776176 59.06893896 7.13594055 66.10333824 C7.15600305 68.92233219 7.16432875 71.7412065 7.17224121 74.56025696 C7.18521667 76.29253573 7.19873743 78.02481053 7.21289062 79.75708008 C7.21190872 80.54012512 7.21092682 81.32317017 7.20991516 82.12994385 C7.25656548 86.23270133 7.52259464 89.55065397 9.5 93.1875 C14.75233231 97.03751057 20.61589538 96.73366538 26.875 96.875 C27.89722656 96.90916016 28.91945313 96.94332031 29.97265625 96.97851562 C32.48166114 97.06058588 34.99033465 97.12986876 37.5 97.1875 C37.4071875 96.37925781 37.314375 95.57101563 37.21875 94.73828125 C36.64347659 86.22218028 36.64347659 86.22218028 38.96484375 83.41796875 C41.08957703 82.09264007 43.17627519 81.12007281 45.5 80.1875 C46.26699219 79.83429688 47.03398438 79.48109375 47.82421875 79.1171875 C49.33839172 78.42308444 50.86323576 77.75173065 52.3984375 77.10546875 C54.73453842 76.12540753 54.73453842 76.12540753 57.75 74.375 C60.5 73.1875 60.5 73.1875 63.25 73.1875 C65.5 74.1875 65.5 74.1875 66.6640625 76.16796875 C67.82952999 80.37781158 67.46605541 84.17882793 67.125 88.5 C67.03992188 89.75393555 67.03992188 89.75393555 66.953125 91.03320312 C66.81240504 93.08536928 66.6576007 95.13656118 66.5 97.1875 C67.48919434 97.17702637 68.47838867 97.16655273 69.49755859 97.15576172 C73.16142164 97.11960981 76.82526886 97.09661718 80.48925781 97.07763672 C82.07619883 97.06756812 83.66312125 97.05391233 85.25 97.03662109 C87.52869247 97.01240999 89.80714006 97.00102578 92.0859375 96.9921875 C92.79744965 96.98186493 93.50896179 96.97154236 94.24203491 96.96090698 C95.99631665 96.96050578 97.74996709 97.06547791 99.5 97.1875 C100.16 97.8475 100.82 98.5075 101.5 99.1875 C101.35603814 103.36239385 98.33681326 105.50622653 95.5 108.1875 C94.93385986 108.7230249 94.36771973 109.2585498 93.78442383 109.81030273 C80.50243783 122.07612307 80.50243783 122.07612307 72.5 122 C70.83037114 121.74807152 69.16291519 121.48048729 67.5 121.1875 C67.5163147 122.40228027 67.5163147 122.40228027 67.53295898 123.64160156 C67.62412452 136.75207375 67.15490407 149.84169737 66.70043945 162.94287109 C66.60823407 165.61307369 66.51752805 168.2832622 66.42993164 170.95361328 C66.30151055 174.85981462 66.16895521 178.76585453 66.03515625 182.671875 C65.97727684 184.43951202 65.97727684 184.43951202 65.91822815 186.24285889 C65.16471357 207.52278643 65.16471357 207.52278643 63.5 209.1875 C59.52724185 209.44006877 55.54233825 209.37272451 51.5625 209.375 C50.43908203 209.38724609 49.31566406 209.39949219 48.15820312 209.41210938 C47.08634766 209.41404297 46.01449219 209.41597656 44.91015625 209.41796875 C43.92152588 209.42207764 42.93289551 209.42618652 41.91430664 209.43041992 C39.5 209.1875 39.5 209.1875 37.5 207.1875 C37.31193404 204.44645231 37.24821596 201.80725713 37.27294922 199.06591797 C37.27265717 198.22681885 37.27236511 197.38771973 37.27206421 196.52319336 C37.27346067 193.74192056 37.28903665 190.96091366 37.3046875 188.1796875 C37.30841651 186.25440619 37.31126401 184.32912299 37.31326294 182.40383911 C37.32090824 177.3304523 37.3405644 172.25717956 37.3626709 167.18383789 C37.38311005 162.00929304 37.39226052 156.83472981 37.40234375 151.66015625 C37.42380946 141.50255398 37.45795619 131.34503647 37.5 121.1875 C36.46069336 121.19273682 35.42138672 121.19797363 34.35058594 121.20336914 C30.48910384 121.2214898 26.62762548 121.23295786 22.76611328 121.24243164 C21.09585945 121.24745569 19.42561001 121.25427605 17.75537109 121.26293945 C15.35252804 121.27508946 12.94974321 121.28074763 10.546875 121.28515625 C9.80193787 121.29031754 9.05700073 121.29547882 8.28948975 121.30079651 C4.88497809 121.30116364 1.75335241 121.26080918 -1.5 120.1875 C-1.5 119.5275 -1.5 118.8675 -1.5 118.1875 C-2.49 117.8575 -3.48 117.5275 -4.5 117.1875 C-6.63238821 113.98891769 -6.74864896 113.20385555 -6.74050903 109.53681946 C-6.74325836 108.58189606 -6.74600769 107.62697266 -6.74884033 106.64311218 C-6.74164978 105.59726456 -6.73445923 104.55141693 -6.72705078 103.47387695 C-6.72734283 102.3712854 -6.72763489 101.26869385 -6.72793579 100.13269043 C-6.72654003 96.48030792 -6.71096702 92.82812822 -6.6953125 89.17578125 C-6.69158325 86.64658215 -6.68873586 84.1173816 -6.68673706 81.58818054 C-6.67987533 75.60648278 -6.66410489 69.62487237 -6.64403808 63.64320964 C-6.62168777 56.83312274 -6.61068784 50.02303236 -6.60064721 43.21291792 C-6.57973887 29.20440482 -6.54455747 15.19595641 -6.5 1.1875 C-4.14653604 0.01076802 -2.6193967 0.02126134 0 0 Z " fill="#F3F3F3" transform="translate(480.5,91.8125)"/>
<path d="M0 0 C1.18746826 0.01317261 1.18746826 0.01317261 2.39892578 0.02661133 C8.34151323 0.23511238 12.70735264 1.19830851 17 5.5625 C20.88871829 9.75822236 23 12.80127811 23 18.5625 C20.89758397 18.69746251 18.7927039 18.79447307 16.6875 18.875 C15.51574219 18.93300781 14.34398437 18.99101562 13.13671875 19.05078125 C11.58404297 18.80908203 11.58404297 18.80908203 10 18.5625 C8.26953125 16.16796875 8.26953125 16.16796875 7 13.5625 C3.74917327 11.39528218 2.70767847 11.29028982 -1.0625 11.3125 C-1.94035156 11.30734375 -2.81820312 11.3021875 -3.72265625 11.296875 C-6.19802328 11.34690648 -6.19802328 11.34690648 -8 13.5625 C-8.16681109 16.64597826 -8.16681109 16.64597826 -8 19.5625 C-6.96101563 19.79324219 -5.92203125 20.02398437 -4.8515625 20.26171875 C12.02105629 24.14885915 12.02105629 24.14885915 18 28.5625 C19.2578125 30.71875 19.2578125 30.71875 20 32.5625 C20.66 32.5625 21.32 32.5625 22 32.5625 C24.13260866 36.82771731 24.59137566 40.86845567 24 45.5625 C22.25090303 50.25744449 19.93716706 53.46302806 16 56.5625 C6.80220301 60.72063607 -3.21297689 60.83165413 -12.70703125 57.6015625 C-17.81837028 55.28535095 -21.56246528 52.0614175 -23.9375 46.9375 C-25 43.5625 -25 43.5625 -25 39.5625 C-20.71 39.5625 -16.42 39.5625 -12 39.5625 C-11.608125 40.51125 -11.21625 41.46 -10.8125 42.4375 C-9.29369776 45.58589186 -9.29369776 45.58589186 -6.9375 46.9375 C-1.32461001 48.13173191 4.46857029 48.15933306 10 46.5625 C9.505 43.0975 9.505 43.0975 9 39.5625 C4.02667288 37.57316915 -0.86859471 36.07480615 -6.0625 34.75 C-13.47052685 32.68559809 -17.76099705 29.92100443 -22 23.5625 C-22.68838934 18.13509355 -23.50569851 11.57983509 -20 7 C-13.70249531 1.88327744 -8.10006343 -0.15553909 0 0 Z " fill="#E5E5E5" transform="translate(127,183.4375)"/>
<path d="M0 0 C0.92361328 -0.01933594 1.84722656 -0.03867188 2.79882812 -0.05859375 C7.40202663 -0.02545337 9.59652929 0.05654556 13.2890625 2.98828125 C13.95679688 3.85839844 14.62453125 4.72851562 15.3125 5.625 C16.199375 6.553125 17.08625 7.48125 18 8.4375 C22.62476038 14.81216972 22.7987474 21.09431837 21.98046875 28.71875 C20.60370221 34.70889213 17.03415301 38.23302523 12.375 42 C6.22219256 45.26475497 -0.18169817 46.99633099 -7.0234375 44.9140625 C-8.58263629 44.36405387 -10.13326629 43.78881571 -11.671875 43.18359375 C-13.86469278 42.37400717 -13.86469278 42.37400717 -16.6875 43.625 C-17.0175 44.285 -17.3475 44.945 -17.6875 45.625 C-18.3475 45.625 -19.0075 45.625 -19.6875 45.625 C-19.23375 44.8 -18.78 43.975 -18.3125 43.125 C-17.32701611 39.75076856 -17.32701611 39.75076856 -18.85546875 37.55078125 C-19.93855504 36.15897678 -21.05562772 34.79287013 -22.20703125 33.45703125 C-25.57637682 29.28757724 -25.14118934 24.17603749 -25.08984375 19.05859375 C-24.37397106 12.94935011 -21.77104619 8.21704678 -17.05932617 4.25634766 C-11.50952455 0.2914989 -6.69135185 -0.14186612 0 0 Z M-9 14.0625 C-11.74717975 18.23414332 -10.98877033 22.77120017 -10.6875 27.625 C-9.6975 27.625 -8.7075 27.625 -7.6875 27.625 C-5.85972981 25.3408023 -5.85972981 25.3408023 -4.1875 22.4375 C-3.5996875 21.47457031 -3.011875 20.51164062 -2.40625 19.51953125 C-1.8390625 18.56433594 -1.271875 17.60914063 -0.6875 16.625 C-0.1203125 15.68011719 0.446875 14.73523438 1.03125 13.76171875 C1.4540625 13.05660156 1.876875 12.35148438 2.3125 11.625 C-2.28153705 9.9235048 -5.03611346 11.59846242 -9 14.0625 Z " fill="#E9E9E9" transform="translate(325.6875,197.375)"/>
<path d="M0 0 C3.96 0 7.92 0 12 0 C12 19.14 12 38.28 12 58 C8.04 58 4.08 58 0 58 C-0.33 57.01 -0.66 56.02 -1 55 C-1.969375 55.66 -2.93875 56.32 -3.9375 57 C-9.12453398 59.92227266 -13.70840158 59.80949733 -19.3984375 58.41015625 C-24.60699544 56.53265281 -27.77720309 53.98093649 -30.19140625 48.96875 C-32.20926896 41.56017193 -32.55091229 32.56472441 -29.46875 25.48046875 C-28.9840625 24.66191406 -28.499375 23.84335938 -28 23 C-27.34 23 -26.68 23 -26 23 C-25.835 22.401875 -25.67 21.80375 -25.5 21.1875 C-23.14292757 17.75010271 -19.95262719 16.9603214 -16 16 C-10.52324505 15.24388085 -6.83517607 16.41119468 -2 19 C-1.93941406 17.71222656 -1.87882812 16.42445313 -1.81640625 15.09765625 C-1.73201753 13.41925841 -1.6473687 11.74087364 -1.5625 10.0625 C-1.52318359 9.21236328 -1.48386719 8.36222656 -1.44335938 7.48632812 C-1.40146484 6.67744141 -1.35957031 5.86855469 -1.31640625 5.03515625 C-1.27974854 4.2862915 -1.24309082 3.53742676 -1.20532227 2.76586914 C-1 1 -1 1 0 0 Z M-14.8125 29 C-17.52946504 32.72612349 -18.16057633 35.44141654 -18 40 C-17.33143191 43.28206152 -16.89735835 45.206183 -14.375 47.4375 C-10.76966527 48.29139507 -7.55377658 48.02832684 -4 47 C-1.3427958 44.77137712 -1.01312761 43.04969737 -0.125 39.6875 C0.0312726 35.07745843 -0.79368116 33.01865218 -3 29 C-7.47314198 26.01790535 -10.37371151 25.84352818 -14.8125 29 Z " fill="#EAEAEA" transform="translate(263,184)"/>
<path d="M0 0 C4.29 0 8.58 0 13 0 C13.33 9.9 13.66 19.8 14 30 C20.55286832 30.59182074 20.55286832 30.59182074 23.88671875 28.30078125 C27.16258588 23.18413111 26.78247599 18.14226214 26.8125 12.1875 C26.83763672 11.01767578 26.86277344 9.84785156 26.88867188 8.64257812 C26.94745756 5.76207954 26.97661178 2.88100344 27 0 C31.29 0 35.58 0 40 0 C40 13.53 40 27.06 40 41 C35.71 41 31.42 41 27 41 C27 39.68 27 38.36 27 37 C26.34 37 25.68 37 25 37 C25 37.66 25 38.32 25 39 C19.63887624 41.68056188 16.00573274 42.57197455 10 42 C5.27645134 40.27408799 2.71162851 38.21860498 0 34 C-0.3428839 31.21471351 -0.47029734 28.84469822 -0.390625 26.07421875 C-0.38496521 25.32662796 -0.37930542 24.57903717 -0.37347412 23.80879211 C-0.35118468 21.43436089 -0.30100656 19.06147062 -0.25 16.6875 C-0.22992519 15.07228751 -0.21167613 13.45705123 -0.1953125 11.84179688 C-0.15134486 7.89394267 -0.08237261 3.94723208 0 0 Z " fill="#EAEAEA" transform="translate(187,201)"/>
<path d="M0 0 C0.33 4.29 0.66 8.58 1 13 C4.3 13 7.6 13 11 13 C11 16.3 11 19.6 11 23 C7.7 23 4.4 23 1 23 C0.97303991 25.7708983 0.95318048 28.5415345 0.9375 31.3125 C0.92912109 32.09818359 0.92074219 32.88386719 0.91210938 33.69335938 C0.90888672 34.45068359 0.90566406 35.20800781 0.90234375 35.98828125 C0.89710693 36.68477783 0.89187012 37.38127441 0.88647461 38.09887695 C0.93104009 40.22497968 0.93104009 40.22497968 2 43 C4.97 43.33 7.94 43.66 11 44 C11.29296875 50.8359375 11.29296875 50.8359375 11 53 C6.5067864 55.99547573 2.26483434 55.70293429 -3 55 C-7.03673009 53.42943942 -10.17613636 51.72149504 -12.08520508 47.73242188 C-13.04591878 44.86284414 -13.23056534 42.71333691 -13.1953125 39.69921875 C-13.18886719 38.72275391 -13.18242187 37.74628906 -13.17578125 36.74023438 C-13.15902344 35.73283203 -13.14226562 34.72542969 -13.125 33.6875 C-13.11597656 32.66076172 -13.10695312 31.63402344 -13.09765625 30.57617188 C-13.07416201 28.05054101 -13.04131131 25.5253919 -13 23 C-15.31 23 -17.62 23 -20 23 C-20.74926071 19.33694766 -21.2380014 16.57644848 -20 13 C-17.69 13 -15.38 13 -13 13 C-13 10.03 -13 7.06 -13 4 C-11.58774074 3.32404685 -10.16997095 2.65959941 -8.75 2 C-7.56664062 1.443125 -7.56664062 1.443125 -6.359375 0.875 C-4 0 -4 0 0 0 Z " fill="#E3E3E3" transform="translate(172,188)"/>
<path d="M0 0 C4.29 0 8.58 0 13 0 C13 13.53 13 27.06 13 41 C8.38 41 3.76 41 -1 41 C-1.02464705 35.32169922 -1.04283462 29.64342931 -1.05493164 23.96508789 C-1.05997256 22.03181415 -1.06680519 20.09854424 -1.07543945 18.1652832 C-1.08751565 15.39273128 -1.09323057 12.62022959 -1.09765625 9.84765625 C-1.10281754 8.97786636 -1.10797882 8.10807648 -1.11329651 7.21192932 C-1.11349185 5.14094186 -1.06208168 3.07005676 -1 1 C-0.67 0.67 -0.34 0.34 0 0 Z " fill="#DBDBDB" transform="translate(284,201)"/>
<path d="M0 0 C4.62 0 9.24 0 14 0 C14 4.62 14 9.24 14 14 C9.38 14 4.76 14 0 14 C0 9.38 0 4.76 0 0 Z " fill="#DBDBDB" transform="translate(283,183)"/>
<path d="M0 0 C1.44207941 2.88415883 1.09394887 5.41721528 1.0625 8.625 C1.05347656 9.81351563 1.04445313 11.00203125 1.03515625 12.2265625 C1.02355469 13.14179688 1.01195312 14.05703125 1 15 C-3.81006205 17.40503103 -6.62364396 18.62540997 -12 17 C-12.66 16.34 -13.32 15.68 -14 15 C-13.80156604 9.74149997 -12.83847964 6.6364544 -9 3 C-6.14577741 1.41361289 -3.32448352 0 0 0 Z " fill="#F2F2F1" transform="translate(332,213)"/>
<path d="M0 0 C0.66 0 1.32 0 2 0 C2.02716824 2.54173977 2.04691969 5.08318415 2.0625 7.625 C2.07087891 8.33785156 2.07925781 9.05070313 2.08789062 9.78515625 C2.10710296 13.97344438 1.8267327 17.8728462 1 22 C0.67 22 0.34 22 0 22 C-1.0773541 14.50824535 -0.8388516 7.51094816 0 0 Z " fill="#929292" transform="translate(546,213)"/>
<path d="M0 0 C1.32 0.66 2.64 1.32 4 2 C4 2.99 4 3.98 4 5 C1.36 5.66 -1.28 6.32 -4 7 C-2.92598892 4.08482708 -2.22189824 2.22189824 0 0 Z " fill="#C0BDBD" transform="translate(328,209)"/>
<path d="M0 0 C0.66 0.33 1.32 0.66 2 1 C1.0409375 1.804375 1.0409375 1.804375 0.0625 2.625 C-2.38529404 5.44367193 -2.66714612 7.33860732 -3 11 C-3.33 11 -3.66 11 -4 11 C-4 8.03 -4 5.06 -4 2 C-2.68 1.34 -1.36 0.68 0 0 Z " fill="#AFAFAF" transform="translate(163,190)"/>
<path d="M0 0 C0.66 0.33 1.32 0.66 2 1 C1.0479279 2.00596297 0.08812654 3.00461563 -0.875 4 C-1.40867188 4.556875 -1.94234375 5.11375 -2.4921875 5.6875 C-4 7 -4 7 -6 7 C-6 6.34 -6 5.68 -6 5 C-5.34 5 -4.68 5 -4 5 C-3.71125 4.360625 -3.4225 3.72125 -3.125 3.0625 C-2 1 -2 1 0 0 Z " fill="#A9A9A9" transform="translate(241,202)"/>
<path d="M0 0 C0.66 0 1.32 0 2 0 C0.44499019 3.81684226 -2.03595495 6.19195732 -5 9 C-4.42676569 5.13066838 -2.61046448 2.84777943 0 0 Z " fill="#949494" transform="translate(110,188)"/>
<path d="M0 0 C0.99 0.33 1.98 0.66 3 1 C1.02 3.31 -0.96 5.62 -3 8 C-3.66 7.67 -4.32 7.34 -5 7 C-3.35 4.69 -1.7 2.38 0 0 Z " fill="#959595" transform="translate(407,92)"/>
</svg>
